<svg xmlns="http://www.w3.org/2000/svg" viewBox="0 0 800 520" width="800" height="520" role="img" aria-label="Anvaya CRM preview">
  <defs>
    <linearGradient id="an-bg" x1="0%" y1="0%" x2="100%" y2="100%">
      <stop offset="0%" style="stop-color:#e8effc"/>
      <stop offset="55%" style="stop-color:#eff6ff"/>
      <stop offset="100%" style="stop-color:#f8fafc"/>
    </linearGradient>
    <linearGradient id="an-top" x1="0%" y1="0%" x2="100%" y2="0%">
      <stop offset="0%" style="stop-color:#1e3a8a"/>
      <stop offset="100%" style="stop-color:#172554"/>
    </linearGradient>
    <linearGradient id="an-bar1" x1="0%" y1="100%" x2="0%" y2="0%">
      <stop offset="0%" style="stop-color:#1d4ed8"/><stop offset="100%" style="stop-color:#60a5fa"/>
    </linearGradient>
    <linearGradient id="an-bar2" x1="0%" y1="100%" x2="0%" y2="0%">
      <stop offset="0%" style="stop-color:#1e40af"/><stop offset="100%" style="stop-color:#93c5fd"/>
    </linearGradient>
    <filter id="an-card" x="-10%" y="-10%" width="120%" height="120%">
      <feDropShadow dx="0" dy="6" stdDeviation="10" flood-color="#1e3a8a" flood-opacity="0.12"/>
    </filter>
  </defs>
  <rect width="800" height="520" rx="24" fill="url(#an-bg)"/>
  <rect width="800" height="520" rx="24" fill="none" stroke="#bfdbfe" stroke-width="2"/>

  <rect x="42" y="40" width="716" height="58" rx="14" fill="url(#an-top)" stroke="#1e40af" stroke-width="1"/>
  <text x="64" y="74" font-family="system-ui,sans-serif" font-size="15" font-weight="700" fill="#ffffff" letter-spacing="-0.03em">TrackFlow</text>
  <rect x="194" y="62" width="88" height="14" rx="3" fill="#bfdbfe" opacity="0.45"/>
  <rect x="298" y="62" width="64" height="14" rx="3" fill="#93c5fd" opacity="0.35"/>
  <circle cx="710" cy="69" r="16" fill="#fff" opacity="0.2" stroke="#93c5fd" stroke-width="2"/>

  <rect x="108" y="118" width="418" height="272" rx="16" fill="#fff" stroke="#93c5fd" stroke-width="2" filter="url(#an-card)"/>
  <rect x="130" y="140" width="132" height="14" rx="3" fill="#1e40af"/>
  <rect x="130" y="164" width="372" height="2" rx="1" fill="#dbeafe"/>

  <rect x="128" y="318" width="46" height="48" rx="6" fill="url(#an-bar2)" opacity="0.95"/>
  <rect x="192" y="276" width="46" height="90" rx="6" fill="url(#an-bar1)"/>
  <rect x="256" y="238" width="46" height="128" rx="6" fill="#2563eb"/>
  <rect x="320" y="294" width="46" height="72" rx="6" fill="#3b82f6"/>
  <rect x="384" y="252" width="46" height="114" rx="6" fill="#60a5fa"/>
  <line x1="122" y1="320" x2="446" y2="320" stroke="#cbd5e1" stroke-width="1"/>

  <rect x="548" y="118" width="210" height="272" rx="16" fill="#fff" stroke="#93c5fd" stroke-width="2" filter="url(#an-card)"/>
  <rect x="570" y="140" width="108" height="14" rx="3" fill="#1e40af"/>

  <rect x="566" y="178" width="174" height="42" rx="10" fill="#f8fafc" stroke="#3b82f6" stroke-width="2"/>
  <rect x="580" y="192" width="52" height="14" rx="3" fill="#1d4ed8"/>
  <rect x="566" y="232" width="174" height="42" rx="10" fill="#f8fafc" stroke="#60a5fa" stroke-opacity="0.85" stroke-width="1.5"/>
  <rect x="580" y="246" width="94" height="14" rx="3" fill="#2563eb" opacity="0.85"/>

  <rect x="566" y="286" width="174" height="42" rx="10" fill="#eff6ff" stroke="#bfdbfe" stroke-width="1.5"/>
  <rect x="580" y="300" width="74" height="14" rx="3" fill="#3b82f6" opacity="0.7"/>

  <rect x="566" y="336" width="174" height="42" rx="10" fill="#172554"/>
  <text x="653" y="362" text-anchor="middle" font-family="system-ui,sans-serif" font-size="13" font-weight="800" fill="#fff">Add lead</text>

  <path d="M234 394 L596 394 L556 450 L274 450 Z" fill="#fff" stroke="#1e40af" stroke-width="2"/>
  <circle cx="416" cy="412" r="12" fill="#2563eb" stroke="#bfdbfe" stroke-width="2"/>
</svg>
